%TF.GenerationSoftware,KiCad,Pcbnew,10.0.3*%
%TF.CreationDate,2026-05-29T20:44:24+02:00*%
%TF.ProjectId,Blinky Board,426c696e-6b79-4204-926f-6172642e6b69,rev?*%
%TF.SameCoordinates,Original*%
%TF.FileFunction,Soldermask,Top*%
%TF.FilePolarity,Negative*%
%FSLAX46Y46*%
G04 Gerber Fmt 4.6, Leading zero omitted, Abs format (unit mm)*
G04 Created by KiCad (PCBNEW 10.0.3) date 2026-05-29 20:44:24*
%MOMM*%
%LPD*%
G01*
G04 APERTURE LIST*
G04 Aperture macros list*
%AMRoundRect*
0 Rectangle with rounded corners*
0 $1 Rounding radius*
0 $2 $3 $4 $5 $6 $7 $8 $9 X,Y pos of 4 corners*
0 Add a 4 corners polygon primitive as box body*
4,1,4,$2,$3,$4,$5,$6,$7,$8,$9,$2,$3,0*
0 Add four circle primitives for the rounded corners*
1,1,$1+$1,$2,$3*
1,1,$1+$1,$4,$5*
1,1,$1+$1,$6,$7*
1,1,$1+$1,$8,$9*
0 Add four rect primitives between the rounded corners*
20,1,$1+$1,$2,$3,$4,$5,0*
20,1,$1+$1,$4,$5,$6,$7,0*
20,1,$1+$1,$6,$7,$8,$9,0*
20,1,$1+$1,$8,$9,$2,$3,0*%
%AMRotRect*
0 Rectangle, with rotation*
0 The origin of the aperture is its center*
0 $1 length*
0 $2 width*
0 $3 Rotation angle, in degrees counterclockwise*
0 Add horizontal line*
21,1,$1,$2,0,0,$3*%
G04 Aperture macros list end*
%ADD10C,1.700000*%
%ADD11RotRect,1.700000X1.700000X240.000000*%
%ADD12C,1.800000*%
%ADD13R,1.800000X1.800000*%
%ADD14RoundRect,0.250000X-0.550000X-0.550000X0.550000X-0.550000X0.550000X0.550000X-0.550000X0.550000X0*%
%ADD15C,1.600000*%
%ADD16RoundRect,0.102000X-0.565000X-0.565000X0.565000X-0.565000X0.565000X0.565000X-0.565000X0.565000X0*%
%ADD17C,1.334000*%
%ADD18RoundRect,0.412500X-0.412500X-0.412500X0.412500X-0.412500X0.412500X0.412500X-0.412500X0.412500X0*%
%ADD19C,1.650000*%
%ADD20C,2.000000*%
G04 APERTURE END LIST*
D10*
%TO.C,J1*%
X182404477Y-45367501D03*
D11*
X184604183Y-46637500D03*
%TD*%
D12*
%TO.C,D6*%
X142270000Y-121000000D03*
D13*
X139730000Y-121000000D03*
%TD*%
D14*
%TO.C,U1*%
X163000000Y-90380000D03*
D15*
X163000000Y-92920000D03*
X163000000Y-95460000D03*
X163000000Y-98000000D03*
X170620000Y-98000000D03*
X170620000Y-95460000D03*
X170620000Y-92920000D03*
X170620000Y-90380000D03*
%TD*%
D16*
%TO.C,U2*%
X162530000Y-65610000D03*
D17*
X162530000Y-68150000D03*
X162530000Y-70690000D03*
X162530000Y-73230000D03*
X162530000Y-75770000D03*
X162530000Y-78310000D03*
X162530000Y-80850000D03*
X162530000Y-83390000D03*
X170470000Y-83390000D03*
X170470000Y-80850000D03*
X170470000Y-78310000D03*
X170470000Y-75770000D03*
X170470000Y-73230000D03*
X170470000Y-70690000D03*
X170470000Y-68150000D03*
X170470000Y-65610000D03*
%TD*%
D18*
%TO.C,RV1*%
X147500000Y-91500000D03*
D19*
X150040000Y-91500000D03*
X152580000Y-91500000D03*
%TD*%
D15*
%TO.C,R3*%
X168000000Y-48690000D03*
X168000000Y-56310000D03*
%TD*%
%TO.C,R1*%
X145690000Y-84000000D03*
X153310000Y-84000000D03*
%TD*%
D13*
%TO.C,D10*%
X166460000Y-40500000D03*
D12*
X169000000Y-40500000D03*
%TD*%
D13*
%TO.C,D9*%
X136500000Y-54500000D03*
D12*
X139040000Y-54500000D03*
%TD*%
D13*
%TO.C,D8*%
X121730000Y-79000000D03*
D12*
X124270000Y-79000000D03*
%TD*%
D13*
%TO.C,D7*%
X123730000Y-102000000D03*
D12*
X126270000Y-102000000D03*
%TD*%
D13*
%TO.C,D5*%
X167000000Y-131770000D03*
D12*
X167000000Y-129230000D03*
%TD*%
%TO.C,D4*%
X193230000Y-120000000D03*
D13*
X195770000Y-120000000D03*
%TD*%
%TO.C,D3*%
X210270000Y-99500000D03*
D12*
X207730000Y-99500000D03*
%TD*%
D13*
%TO.C,D2*%
X209770000Y-78500000D03*
D12*
X207230000Y-78500000D03*
%TD*%
D13*
%TO.C,D1*%
X196270000Y-53000000D03*
D12*
X193730000Y-53000000D03*
%TD*%
D20*
%TO.C,C2*%
X179500000Y-98000000D03*
X184500000Y-98000000D03*
%TD*%
D14*
%TO.C,C1*%
X179000000Y-89000000D03*
D15*
X181000000Y-89000000D03*
%TD*%
M02*
